<svg width="25" height="24" viewBox="0 0 25 24" fill="none" xmlns="http://www.w3.org/2000/svg">
<path d="M12.0872 12C12.6389 12 13.1113 11.804 13.5044 11.412C13.8976 11.02 14.0938 10.5493 14.0932 10C14.0932 9.45 13.8966 8.979 13.5034 8.587C13.1102 8.195 12.6382 7.99933 12.0872 8C11.5356 8 11.0632 8.196 10.67 8.588C10.2768 8.98 10.0806 9.45067 10.0813 10C10.0813 10.55 10.2779 11.021 10.671 11.413C11.0642 11.805 11.5362 12.0007 12.0872 12ZM12.0872 22C9.39591 19.7167 7.38595 17.596 6.05734 15.638C4.72874 13.68 4.0641 11.8673 4.06343 10.2C4.06343 7.7 4.87016 5.70833 6.48361 4.225C8.09705 2.74167 9.96493 2 12.0872 2C14.2102 2 16.0784 2.74167 17.6918 4.225C19.3053 5.70833 20.1117 7.7 20.111 10.2C20.111 11.8667 19.4464 13.6793 18.1171 15.638C16.7878 17.5967 14.7779 19.7173 12.0872 22Z" fill="#444444"/>
</svg>
