<svg width="30" height="24" viewBox="0 0 30 24" fill="none" xmlns="http://www.w3.org/2000/svg">
<g clip-path="url(#clip0_20_33)">
<path d="M26.8488 6.03423C26.8669 6.28952 26.8669 6.54481 26.8669 6.80246C26.8669 14.653 20.7218 23.7072 9.48508 23.7072V23.7025C6.16573 23.7072 2.91533 22.7825 0.120972 21.0389C0.603633 21.0954 1.08871 21.1236 1.575 21.1248C4.32581 21.1272 6.99799 20.2295 9.1621 18.5766C6.54799 18.5283 4.25565 16.8707 3.45484 14.4507C4.37057 14.6225 5.31412 14.5872 6.21291 14.3483C3.36291 13.7883 1.3125 11.353 1.3125 8.52481C1.3125 8.49893 1.3125 8.47423 1.3125 8.44952C2.1617 8.90952 3.1125 9.16481 4.08508 9.19305C1.40081 7.44834 0.573391 3.9754 2.19436 1.26011C5.29597 4.97187 9.87218 7.22834 14.7847 7.46717C14.2923 5.40364 14.9649 3.24128 16.552 1.7907C19.0125 -0.458716 22.8823 -0.343422 25.1952 2.04834C26.5633 1.78599 27.8746 1.29775 29.0746 0.60599C28.6186 1.98128 27.6641 3.14952 26.3891 3.89187C27.6 3.75305 28.7831 3.43775 29.8972 2.95658C29.077 4.15187 28.044 5.19305 26.8488 6.03423Z" fill="#0079FF"/>
</g>
<defs>
<clipPath id="clip0_20_33">
<rect width="30" height="24" fill="white"/>
</clipPath>
</defs>
</svg>
